<svg width="177" height="15" viewBox="0 0 177 15" fill="none" xmlns="http://www.w3.org/2000/svg">
<path d="M8.088 3.66L4.956 12H3.372L0.228 3.66H1.692L4.164 10.596L6.648 3.66H8.088ZM15.292 8.532C15.292 8.78 15.276 9.004 15.244 9.204H10.192C10.232 9.732 10.428 10.156 10.78 10.476C11.132 10.796 11.564 10.956 12.076 10.956C12.812 10.956 13.332 10.648 13.636 10.032H15.112C14.912 10.64 14.548 11.14 14.02 11.532C13.5 11.916 12.852 12.108 12.076 12.108C11.444 12.108 10.876 11.968 10.372 11.688C9.87603 11.4 9.48403 11 9.19603 10.488C8.91603 9.968 8.77603 9.368 8.77603 8.688C8.77603 8.008 8.91203 7.412 9.18403 6.9C9.46403 6.38 9.85203 5.98 10.348 5.7C10.852 5.42 11.428 5.28 12.076 5.28C12.7 5.28 13.256 5.416 13.744 5.688C14.232 5.96 14.612 6.344 14.884 6.84C15.156 7.328 15.292 7.892 15.292 8.532ZM13.864 8.1C13.856 7.596 13.676 7.192 13.324 6.888C12.972 6.584 12.536 6.432 12.016 6.432C11.544 6.432 11.14 6.584 10.804 6.888C10.468 7.184 10.268 7.588 10.204 8.1H13.864ZM18.0063 6.348C18.2063 6.012 18.4703 5.752 18.7983 5.568C19.1343 5.376 19.5303 5.28 19.9863 5.28V6.696H19.6383C19.1023 6.696 18.6943 6.832 18.4143 7.104C18.1423 7.376 18.0063 7.848 18.0063 8.52V12H16.6383V5.388H18.0063V6.348ZM21.9398 4.512C21.6918 4.512 21.4838 4.428 21.3158 4.26C21.1478 4.092 21.0638 3.884 21.0638 3.636C21.0638 3.388 21.1478 3.18 21.3158 3.012C21.4838 2.844 21.6918 2.76 21.9398 2.76C22.1798 2.76 22.3838 2.844 22.5518 3.012C22.7198 3.18 22.8038 3.388 22.8038 3.636C22.8038 3.884 22.7198 4.092 22.5518 4.26C22.3838 4.428 22.1798 4.512 21.9398 4.512ZM22.6118 5.388V12H21.2438V5.388H22.6118ZM27.1798 6.504H25.9558V12H24.5758V6.504H23.7958V5.388H24.5758V4.92C24.5758 4.16 24.7758 3.608 25.1758 3.264C25.5838 2.912 26.2198 2.736 27.0838 2.736V3.876C26.6678 3.876 26.3758 3.956 26.2078 4.116C26.0398 4.268 25.9558 4.536 25.9558 4.92V5.388H27.1798V6.504ZM29.0882 4.512C28.8402 4.512 28.6322 4.428 28.4642 4.26C28.2962 4.092 28.2122 3.884 28.2122 3.636C28.2122 3.388 28.2962 3.18 28.4642 3.012C28.6322 2.844 28.8402 2.76 29.0882 2.76C29.3282 2.76 29.5322 2.844 29.7002 3.012C29.8682 3.18 29.9522 3.388 29.9522 3.636C29.9522 3.884 29.8682 4.092 29.7002 4.26C29.5322 4.428 29.3282 4.512 29.0882 4.512ZM29.7602 5.388V12H28.3922V5.388H29.7602ZM37.6163 8.532C37.6163 8.78 37.6003 9.004 37.5683 9.204H32.5163C32.5563 9.732 32.7523 10.156 33.1043 10.476C33.4563 10.796 33.8883 10.956 34.4003 10.956C35.1363 10.956 35.6563 10.648 35.9603 10.032H37.4362C37.2363 10.64 36.8723 11.14 36.3443 11.532C35.8243 11.916 35.1763 12.108 34.4003 12.108C33.7683 12.108 33.2003 11.968 32.6963 11.688C32.2003 11.4 31.8083 11 31.5203 10.488C31.2403 9.968 31.1003 9.368 31.1003 8.688C31.1003 8.008 31.2363 7.412 31.5083 6.9C31.7883 6.38 32.1763 5.98 32.6723 5.7C33.1763 5.42 33.7523 5.28 34.4003 5.28C35.0243 5.28 35.5803 5.416 36.0683 5.688C36.5563 5.96 36.9363 6.344 37.2083 6.84C37.4803 7.328 37.6163 7.892 37.6163 8.532ZM36.1883 8.1C36.1803 7.596 36.0003 7.192 35.6483 6.888C35.2963 6.584 34.8603 6.432 34.3403 6.432C33.8683 6.432 33.4643 6.584 33.1283 6.888C32.7923 7.184 32.5923 7.588 32.5283 8.1H36.1883ZM38.5065 8.664C38.5065 8 38.6425 7.412 38.9145 6.9C39.1945 6.388 39.5705 5.992 40.0425 5.712C40.5225 5.424 41.0545 5.28 41.6385 5.28C42.0705 5.28 42.4945 5.376 42.9105 5.568C43.3345 5.752 43.6705 6 43.9185 6.312V3.12H45.2985V12H43.9185V11.004C43.6945 11.324 43.3825 11.588 42.9825 11.796C42.5905 12.004 42.1385 12.108 41.6265 12.108C41.0505 12.108 40.5225 11.964 40.0425 11.676C39.5705 11.38 39.1945 10.972 38.9145 10.452C38.6425 9.924 38.5065 9.328 38.5065 8.664ZM43.9185 8.688C43.9185 8.232 43.8225 7.836 43.6305 7.5C43.4465 7.164 43.2025 6.908 42.8985 6.732C42.5945 6.556 42.2665 6.468 41.9145 6.468C41.5625 6.468 41.2345 6.556 40.9305 6.732C40.6265 6.9 40.3785 7.152 40.1865 7.488C40.0025 7.816 39.9105 8.208 39.9105 8.664C39.9105 9.12 40.0025 9.52 40.1865 9.864C40.3785 10.208 40.6265 10.472 40.9305 10.656C41.2425 10.832 41.5705 10.92 41.9145 10.92C42.2665 10.92 42.5945 10.832 42.8985 10.656C43.2025 10.48 43.4465 10.224 43.6305 9.888C43.8225 9.544 43.9185 9.144 43.9185 8.688ZM54.0165 12.084C53.2405 12.084 52.5245 11.904 51.8685 11.544C51.2205 11.176 50.7045 10.668 50.3205 10.02C49.9445 9.364 49.7565 8.628 49.7565 7.812C49.7565 6.996 49.9445 6.264 50.3205 5.616C50.7045 4.968 51.2205 4.464 51.8685 4.104C52.5245 3.736 53.2405 3.552 54.0165 3.552C54.8005 3.552 55.5165 3.736 56.1645 4.104C56.8205 4.464 57.3365 4.968 57.7125 5.616C58.0885 6.264 58.2765 6.996 58.2765 7.812C58.2765 8.628 58.0885 9.364 57.7125 10.02C57.3365 10.668 56.8205 11.176 56.1645 11.544C55.5165 11.904 54.8005 12.084 54.0165 12.084ZM54.0165 10.896C54.5685 10.896 55.0605 10.772 55.4925 10.524C55.9245 10.268 56.2605 9.908 56.5005 9.444C56.7485 8.972 56.8725 8.428 56.8725 7.812C56.8725 7.196 56.7485 6.656 56.5005 6.192C56.2605 5.728 55.9245 5.372 55.4925 5.124C55.0605 4.876 54.5685 4.752 54.0165 4.752C53.4645 4.752 52.9725 4.876 52.5405 5.124C52.1085 5.372 51.7685 5.728 51.5205 6.192C51.2805 6.656 51.1605 7.196 51.1605 7.812C51.1605 8.428 51.2805 8.972 51.5205 9.444C51.7685 9.908 52.1085 10.268 52.5405 10.524C52.9725 10.772 53.4645 10.896 54.0165 10.896ZM62.9587 5.28C63.4787 5.28 63.9427 5.388 64.3507 5.604C64.7667 5.82 65.0907 6.14 65.3227 6.564C65.5547 6.988 65.6707 7.5 65.6707 8.1V12H64.3147V8.304C64.3147 7.712 64.1667 7.26 63.8707 6.948C63.5747 6.628 63.1707 6.468 62.6587 6.468C62.1467 6.468 61.7387 6.628 61.4347 6.948C61.1387 7.26 60.9907 7.712 60.9907 8.304V12H59.6227V5.388H60.9907V6.144C61.2147 5.872 61.4987 5.66 61.8427 5.508C62.1947 5.356 62.5667 5.28 62.9587 5.28ZM67.9676 12.084C67.7196 12.084 67.5116 12 67.3436 11.832C67.1756 11.664 67.0916 11.456 67.0916 11.208C67.0916 10.96 67.1756 10.752 67.3436 10.584C67.5116 10.416 67.7196 10.332 67.9676 10.332C68.2076 10.332 68.4116 10.416 68.5796 10.584C68.7476 10.752 68.8316 10.96 68.8316 11.208C68.8316 11.456 68.7476 11.664 68.5796 11.832C68.4116 12 68.2076 12.084 67.9676 12.084ZM67.9676 7.044C67.7196 7.044 67.5116 6.96 67.3436 6.792C67.1756 6.624 67.0916 6.416 67.0916 6.168C67.0916 5.92 67.1756 5.712 67.3436 5.544C67.5116 5.376 67.7196 5.292 67.9676 5.292C68.2076 5.292 68.4116 5.376 68.5796 5.544C68.7476 5.712 68.8316 5.92 68.8316 6.168C68.8316 6.416 68.7476 6.624 68.5796 6.792C68.4116 6.96 68.2076 7.044 67.9676 7.044ZM73.2942 7.512C73.2942 6.128 73.5262 5.048 73.9902 4.272C74.4622 3.488 75.2702 3.096 76.4142 3.096C77.5582 3.096 78.3622 3.488 78.8262 4.272C79.2982 5.048 79.5342 6.128 79.5342 7.512C79.5342 8.912 79.2982 10.008 78.8262 10.8C78.3622 11.584 77.5582 11.976 76.4142 11.976C75.2702 11.976 74.4622 11.584 73.9902 10.8C73.5262 10.008 73.2942 8.912 73.2942 7.512ZM78.1902 7.512C78.1902 6.864 78.1462 6.316 78.0582 5.868C77.9782 5.42 77.8102 5.056 77.5542 4.776C77.2982 4.488 76.9182 4.344 76.4142 4.344C75.9102 4.344 75.5302 4.488 75.2742 4.776C75.0182 5.056 74.8462 5.42 74.7582 5.868C74.6782 6.316 74.6382 6.864 74.6382 7.512C74.6382 8.184 74.6782 8.748 74.7582 9.204C74.8382 9.66 75.0062 10.028 75.2622 10.308C75.5262 10.588 75.9102 10.728 76.4142 10.728C76.9182 10.728 77.2982 10.588 77.5542 10.308C77.8182 10.028 77.9902 9.66 78.0702 9.204C78.1502 8.748 78.1902 8.184 78.1902 7.512ZM80.8017 4.5V3.252H83.2977V12H81.9177V4.5H80.8017ZM89.797 0.671999L86.533 14.1H85.189L88.441 0.671999H89.797ZM91.3411 7.512C91.3411 6.128 91.5731 5.048 92.0371 4.272C92.5091 3.488 93.3171 3.096 94.4611 3.096C95.6051 3.096 96.4091 3.488 96.8731 4.272C97.3451 5.048 97.5811 6.128 97.5811 7.512C97.5811 8.912 97.3451 10.008 96.8731 10.8C96.4091 11.584 95.6051 11.976 94.4611 11.976C93.3171 11.976 92.5091 11.584 92.0371 10.8C91.5731 10.008 91.3411 8.912 91.3411 7.512ZM96.2371 7.512C96.2371 6.864 96.1931 6.316 96.1051 5.868C96.0251 5.42 95.8571 5.056 95.6011 4.776C95.3451 4.488 94.9651 4.344 94.4611 4.344C93.9571 4.344 93.5771 4.488 93.3211 4.776C93.0651 5.056 92.8931 5.42 92.8051 5.868C92.7251 6.316 92.6851 6.864 92.6851 7.512C92.6851 8.184 92.7251 8.748 92.8051 9.204C92.8851 9.66 93.0531 10.028 93.3091 10.308C93.5731 10.588 93.9571 10.728 94.4611 10.728C94.9651 10.728 95.3451 10.588 95.6011 10.308C95.8651 10.028 96.0371 9.66 96.1171 9.204C96.1971 8.748 96.2371 8.184 96.2371 7.512ZM103.733 5.28C103.645 4.912 103.485 4.636 103.253 4.452C103.021 4.268 102.697 4.176 102.281 4.176C101.649 4.176 101.177 4.42 100.865 4.908C100.553 5.388 100.389 6.188 100.373 7.308C100.581 6.956 100.885 6.684 101.285 6.492C101.685 6.3 102.117 6.204 102.581 6.204C103.109 6.204 103.573 6.32 103.973 6.552C104.381 6.776 104.697 7.104 104.921 7.536C105.153 7.968 105.269 8.484 105.269 9.084C105.269 9.644 105.157 10.144 104.933 10.584C104.717 11.024 104.393 11.372 103.961 11.628C103.529 11.876 103.009 12 102.401 12C101.577 12 100.929 11.82 100.457 11.46C99.9926 11.092 99.6646 10.576 99.4726 9.912C99.2886 9.248 99.1966 8.42 99.1966 7.428C99.1966 4.5 100.229 3.036 102.293 3.036C103.093 3.036 103.721 3.252 104.177 3.684C104.641 4.116 104.913 4.648 104.993 5.28H103.733ZM102.281 7.356C101.793 7.356 101.377 7.504 101.033 7.8C100.697 8.088 100.529 8.508 100.529 9.06C100.529 9.612 100.685 10.052 100.997 10.38C101.317 10.7 101.761 10.86 102.329 10.86C102.833 10.86 103.229 10.704 103.517 10.392C103.813 10.08 103.961 9.664 103.961 9.144C103.961 8.6 103.817 8.168 103.529 7.848C103.249 7.52 102.833 7.356 102.281 7.356ZM111.348 0.671999L108.084 14.1H106.74L109.992 0.671999H111.348ZM113.648 10.14C114.416 9.476 115.02 8.932 115.46 8.508C115.908 8.076 116.28 7.628 116.576 7.164C116.872 6.7 117.02 6.236 117.02 5.772C117.02 5.292 116.904 4.916 116.672 4.644C116.448 4.372 116.092 4.236 115.604 4.236C115.132 4.236 114.764 4.388 114.5 4.692C114.244 4.988 114.108 5.388 114.092 5.892H112.772C112.796 4.98 113.068 4.284 113.588 3.804C114.116 3.316 114.784 3.072 115.592 3.072C116.464 3.072 117.144 3.312 117.632 3.792C118.128 4.272 118.376 4.912 118.376 5.712C118.376 6.288 118.228 6.844 117.932 7.38C117.644 7.908 117.296 8.384 116.888 8.808C116.488 9.224 115.976 9.708 115.352 10.26L114.812 10.74H118.616V11.88H112.784V10.884L113.648 10.14ZM119.818 7.512C119.818 6.128 120.05 5.048 120.514 4.272C120.986 3.488 121.794 3.096 122.938 3.096C124.082 3.096 124.886 3.488 125.35 4.272C125.822 5.048 126.058 6.128 126.058 7.512C126.058 8.912 125.822 10.008 125.35 10.8C124.886 11.584 124.082 11.976 122.938 11.976C121.794 11.976 120.986 11.584 120.514 10.8C120.05 10.008 119.818 8.912 119.818 7.512ZM124.714 7.512C124.714 6.864 124.67 6.316 124.582 5.868C124.502 5.42 124.334 5.056 124.078 4.776C123.822 4.488 123.442 4.344 122.938 4.344C122.434 4.344 122.054 4.488 121.798 4.776C121.542 5.056 121.37 5.42 121.282 5.868C121.202 6.316 121.162 6.864 121.162 7.512C121.162 8.184 121.202 8.748 121.282 9.204C121.362 9.66 121.53 10.028 121.786 10.308C122.05 10.588 122.434 10.728 122.938 10.728C123.442 10.728 123.822 10.588 124.078 10.308C124.342 10.028 124.514 9.66 124.594 9.204C124.674 8.748 124.714 8.184 124.714 7.512ZM128.261 10.14C129.029 9.476 129.633 8.932 130.073 8.508C130.521 8.076 130.893 7.628 131.189 7.164C131.485 6.7 131.633 6.236 131.633 5.772C131.633 5.292 131.517 4.916 131.285 4.644C131.061 4.372 130.705 4.236 130.217 4.236C129.745 4.236 129.377 4.388 129.113 4.692C128.857 4.988 128.721 5.388 128.705 5.892H127.385C127.409 4.98 127.681 4.284 128.201 3.804C128.729 3.316 129.397 3.072 130.205 3.072C131.077 3.072 131.757 3.312 132.245 3.792C132.741 4.272 132.989 4.912 132.989 5.712C132.989 6.288 132.841 6.844 132.545 7.38C132.257 7.908 131.909 8.384 131.501 8.808C131.101 9.224 130.589 9.708 129.965 10.26L129.425 10.74H133.229V11.88H127.397V10.884L128.261 10.14ZM134.251 4.5V3.252H136.747V12H135.367V4.5H134.251ZM140.306 10.356L138.854 13.668H137.966L138.818 10.356H140.306ZM147.643 14.232C146.859 13.48 146.255 12.524 145.831 11.364C145.415 10.204 145.207 8.96 145.207 7.632C145.207 6.272 145.431 4.988 145.879 3.78C146.335 2.572 147.003 1.576 147.883 0.792H149.299V0.924C148.379 1.772 147.687 2.788 147.223 3.972C146.759 5.156 146.527 6.376 146.527 7.632C146.527 8.84 146.743 10.008 147.175 11.136C147.607 12.264 148.235 13.252 149.059 14.1V14.232H147.643ZM155.913 3.66V4.776H153.693V12H152.325V4.776H150.093V3.66H155.913ZM163.286 5.388V12H161.918V11.22C161.702 11.492 161.418 11.708 161.066 11.868C160.722 12.02 160.354 12.096 159.962 12.096C159.442 12.096 158.974 11.988 158.558 11.772C158.15 11.556 157.826 11.236 157.586 10.812C157.354 10.388 157.238 9.876 157.238 9.276V5.388H158.594V9.072C158.594 9.664 158.742 10.12 159.038 10.44C159.334 10.752 159.738 10.908 160.25 10.908C160.762 10.908 161.166 10.752 161.462 10.44C161.766 10.12 161.918 9.664 161.918 9.072V5.388H163.286ZM171.151 8.532C171.151 8.78 171.135 9.004 171.103 9.204H166.051C166.091 9.732 166.287 10.156 166.639 10.476C166.991 10.796 167.423 10.956 167.935 10.956C168.671 10.956 169.191 10.648 169.495 10.032H170.971C170.771 10.64 170.407 11.14 169.879 11.532C169.359 11.916 168.711 12.108 167.935 12.108C167.303 12.108 166.735 11.968 166.231 11.688C165.735 11.4 165.343 11 165.055 10.488C164.775 9.968 164.635 9.368 164.635 8.688C164.635 8.008 164.771 7.412 165.043 6.9C165.323 6.38 165.711 5.98 166.207 5.7C166.711 5.42 167.287 5.28 167.935 5.28C168.559 5.28 169.115 5.416 169.603 5.688C170.091 5.96 170.471 6.344 170.743 6.84C171.015 7.328 171.151 7.892 171.151 8.532ZM169.723 8.1C169.715 7.596 169.535 7.192 169.183 6.888C168.831 6.584 168.395 6.432 167.875 6.432C167.403 6.432 166.999 6.584 166.663 6.888C166.327 7.184 166.127 7.588 166.063 8.1H169.723ZM172.162 14.232V14.1C172.986 13.252 173.614 12.264 174.046 11.136C174.478 10.008 174.694 8.84 174.694 7.632C174.694 6.376 174.462 5.156 173.998 3.972C173.534 2.788 172.842 1.772 171.922 0.924V0.792H173.338C174.218 1.576 174.882 2.572 175.33 3.78C175.786 4.988 176.014 6.272 176.014 7.632C176.014 8.96 175.802 10.204 175.378 11.364C174.962 12.524 174.362 13.48 173.578 14.232H172.162Z" fill="white" fill-opacity="0.5"/>
</svg>
