<svg width="143" height="43" viewBox="0 0 143 43" fill="none" xmlns="http://www.w3.org/2000/svg">
<path d="M3.904 28.56C6.976 25.904 9.392 23.728 11.152 22.032C12.944 20.304 14.432 18.512 15.616 16.656C16.8 14.8 17.392 12.944 17.392 11.088C17.392 9.168 16.928 7.664 16 6.576C15.104 5.488 13.68 4.944 11.728 4.944C9.84 4.944 8.368 5.552 7.312 6.768C6.288 7.952 5.744 9.552 5.68 11.568H0.4C0.496 7.92 1.584 5.136 3.664 3.216C5.776 1.264 8.448 0.287999 11.68 0.287999C15.168 0.287999 17.888 1.248 19.84 3.168C21.824 5.088 22.816 7.648 22.816 10.848C22.816 13.152 22.224 15.376 21.04 17.52C19.888 19.632 18.496 21.536 16.864 23.232C15.264 24.896 13.216 26.832 10.72 29.04L8.56 30.96H23.776V35.52H0.448V31.536L3.904 28.56ZM27.8631 6V1.008H37.8471V36H32.3271V6H27.8631ZM52.0844 29.424L46.2764 42.672H42.7244L46.1324 29.424H52.0844ZM78.7056 5.712H62.6256V15.264C63.2976 14.368 64.2896 13.616 65.6016 13.008C66.9456 12.4 68.3696 12.096 69.8736 12.096C72.5616 12.096 74.7376 12.672 76.4016 13.824C78.0976 14.976 79.2976 16.432 80.0016 18.192C80.7376 19.952 81.1056 21.808 81.1056 23.76C81.1056 26.128 80.6416 28.24 79.7136 30.096C78.8176 31.92 77.4576 33.36 75.6336 34.416C73.8416 35.472 71.6336 36 69.0096 36C65.5216 36 62.7216 35.136 60.6096 33.408C58.4976 31.68 57.2336 29.392 56.8176 26.544H62.1456C62.4976 28.048 63.2816 29.248 64.4976 30.144C65.7136 31.008 67.2336 31.44 69.0576 31.44C71.3296 31.44 73.0256 30.752 74.1456 29.376C75.2976 28 75.8736 26.176 75.8736 23.904C75.8736 21.6 75.2976 19.84 74.1456 18.624C72.9936 17.376 71.2976 16.752 69.0576 16.752C67.4896 16.752 66.1616 17.152 65.0736 17.952C64.0176 18.72 63.2496 19.776 62.7696 21.12H57.5856V0.912H78.7056V5.712ZM86.1299 28.704V24.576L102.258 1.44H108.882V23.952H113.346V28.704H108.882V36H103.506V28.704H86.1299ZM103.746 7.008L92.4179 23.952H103.746V7.008ZM117.88 18.048C117.88 12.512 118.808 8.192 120.664 5.088C122.552 1.952 125.784 0.383998 130.36 0.383998C134.936 0.383998 138.152 1.952 140.008 5.088C141.896 8.192 142.84 12.512 142.84 18.048C142.84 23.648 141.896 28.032 140.008 31.2C138.152 34.336 134.936 35.904 130.36 35.904C125.784 35.904 122.552 34.336 120.664 31.2C118.808 28.032 117.88 23.648 117.88 18.048ZM137.464 18.048C137.464 15.456 137.288 13.264 136.936 11.472C136.616 9.68 135.944 8.224 134.92 7.104C133.896 5.952 132.376 5.376 130.36 5.376C128.344 5.376 126.824 5.952 125.8 7.104C124.776 8.224 124.088 9.68 123.736 11.472C123.416 13.264 123.256 15.456 123.256 18.048C123.256 20.736 123.416 22.992 123.736 24.816C124.056 26.64 124.728 28.112 125.752 29.232C126.808 30.352 128.344 30.912 130.36 30.912C132.376 30.912 133.896 30.352 134.92 29.232C135.976 28.112 136.664 26.64 136.984 24.816C137.304 22.992 137.464 20.736 137.464 18.048Z" fill="white"/>
</svg>
