<svg width="86" height="37" viewBox="0 0 86 37" fill="none" xmlns="http://www.w3.org/2000/svg">
<path d="M0.208 28.704V24.576L16.336 1.44H22.96V23.952H27.424V28.704H22.96V36H17.584V28.704H0.208ZM17.824 7.008L6.496 23.952H17.824V7.008ZM37.8621 17.712C34.5341 16.048 32.8701 13.424 32.8701 9.84C32.8701 8.112 33.3021 6.528 34.1661 5.088C35.0301 3.648 36.3261 2.512 38.0541 1.68C39.7821 0.815998 41.8941 0.383998 44.3901 0.383998C46.8541 0.383998 48.9501 0.815998 50.6781 1.68C52.4381 2.512 53.7501 3.648 54.6141 5.088C55.4781 6.528 55.9101 8.112 55.9101 9.84C55.9101 11.632 55.4461 13.216 54.5181 14.592C53.6221 15.936 52.4221 16.976 50.9181 17.712C52.7421 18.384 54.1821 19.488 55.2381 21.024C56.2941 22.528 56.8221 24.304 56.8221 26.352C56.8221 28.432 56.2941 30.272 55.2381 31.872C54.1821 33.472 52.7101 34.704 50.8221 35.568C48.9341 36.432 46.7901 36.864 44.3901 36.864C41.9901 36.864 39.8461 36.432 37.9581 35.568C36.1021 34.704 34.6461 33.472 33.5901 31.872C32.5341 30.272 32.0061 28.432 32.0061 26.352C32.0061 24.272 32.5341 22.48 33.5901 20.976C34.6461 19.472 36.0701 18.384 37.8621 17.712ZM50.6781 10.512C50.6781 8.72 50.1181 7.344 48.9981 6.384C47.8781 5.424 46.3421 4.944 44.3901 4.944C42.4701 4.944 40.9501 5.424 39.8301 6.384C38.7101 7.344 38.1501 8.736 38.1501 10.56C38.1501 12.16 38.7261 13.472 39.8781 14.496C41.0621 15.488 42.5661 15.984 44.3901 15.984C46.2141 15.984 47.7181 15.472 48.9021 14.448C50.0861 13.424 50.6781 12.112 50.6781 10.512ZM44.3901 20.112C42.2781 20.112 40.5501 20.64 39.2061 21.696C37.8941 22.72 37.2381 24.208 37.2381 26.16C37.2381 27.984 37.8781 29.472 39.1581 30.624C40.4381 31.744 42.1821 32.304 44.3901 32.304C46.5661 32.304 48.2781 31.728 49.5261 30.576C50.8061 29.424 51.4461 27.952 51.4461 26.16C51.4461 24.24 50.7901 22.752 49.4781 21.696C48.1981 20.64 46.5021 20.112 44.3901 20.112ZM65.5915 28.56C68.6635 25.904 71.0795 23.728 72.8395 22.032C74.6315 20.304 76.1195 18.512 77.3035 16.656C78.4875 14.8 79.0795 12.944 79.0795 11.088C79.0795 9.168 78.6155 7.664 77.6875 6.576C76.7915 5.488 75.3675 4.944 73.4155 4.944C71.5275 4.944 70.0555 5.552 68.9995 6.768C67.9755 7.952 67.4315 9.552 67.3675 11.568H62.0875C62.1835 7.92 63.2715 5.136 65.3515 3.216C67.4635 1.264 70.1355 0.287999 73.3675 0.287999C76.8555 0.287999 79.5755 1.248 81.5275 3.168C83.5115 5.088 84.5035 7.648 84.5035 10.848C84.5035 13.152 83.9115 15.376 82.7275 17.52C81.5755 19.632 80.1835 21.536 78.5515 23.232C76.9515 24.896 74.9035 26.832 72.4075 29.04L70.2475 30.96H85.4635V35.52H62.1355V31.536L65.5915 28.56Z" fill="white"/>
</svg>
