<svg width="310" height="27" viewBox="0 0 310 27" fill="none" xmlns="http://www.w3.org/2000/svg">
<path d="M13.184 26.252C10.808 26.252 8.624 25.7 6.632 24.596C4.664 23.492 3.092 21.956 1.916 19.988C0.764 17.996 0.188 15.764 0.188 13.292C0.188 10.82 0.764 8.6 1.916 6.632C3.092 4.664 4.664 3.128 6.632 2.024C8.624 0.92 10.808 0.368 13.184 0.368C15.56 0.368 17.732 0.92 19.7 2.024C21.692 3.128 23.252 4.664 24.38 6.632C25.532 8.6 26.108 10.82 26.108 13.292C26.108 15.764 25.532 17.996 24.38 19.988C23.228 21.956 21.668 23.492 19.7 24.596C17.732 25.7 15.56 26.252 13.184 26.252ZM13.184 20.636C15.2 20.636 16.808 19.964 18.008 18.62C19.232 17.276 19.844 15.5 19.844 13.292C19.844 11.06 19.232 9.284 18.008 7.964C16.808 6.62 15.2 5.948 13.184 5.948C11.144 5.948 9.512 6.608 8.288 7.928C7.088 9.248 6.488 11.036 6.488 13.292C6.488 15.524 7.088 17.312 8.288 18.656C9.512 19.976 11.144 20.636 13.184 20.636ZM35.5808 0.727999V15.848C35.5808 17.36 35.9528 18.524 36.6968 19.34C37.4408 20.156 38.5328 20.564 39.9728 20.564C41.4128 20.564 42.5168 20.156 43.2848 19.34C44.0528 18.524 44.4368 17.36 44.4368 15.848V0.727999H50.5928V15.812C50.5928 18.068 50.1128 19.976 49.1528 21.536C48.1928 23.096 46.8968 24.272 45.2648 25.064C43.6568 25.856 41.8568 26.252 39.8648 26.252C37.8728 26.252 36.0848 25.868 34.5008 25.1C32.9408 24.308 31.7048 23.132 30.7928 21.572C29.8808 19.988 29.4248 18.068 29.4248 15.812V0.727999H35.5808ZM67.8036 26L62.5476 16.46H61.0716V26H54.9156V0.727999H65.2476C67.2396 0.727999 68.9316 1.076 70.3236 1.772C71.7396 2.468 72.7956 3.428 73.4916 4.652C74.1876 5.852 74.5356 7.196 74.5356 8.684C74.5356 10.364 74.0556 11.864 73.0956 13.184C72.1596 14.504 70.7676 15.44 68.9196 15.992L74.7516 26H67.8036ZM61.0716 12.104H64.8876C66.0156 12.104 66.8556 11.828 67.4076 11.276C67.9836 10.724 68.2716 9.944 68.2716 8.936C68.2716 7.976 67.9836 7.22 67.4076 6.668C66.8556 6.116 66.0156 5.84 64.8876 5.84H61.0716V12.104ZM114.649 0.727999V26H108.493V10.844L102.841 26H97.8729L92.1849 10.808V26H86.0289V0.727999H93.3009L100.393 18.224L107.413 0.727999H114.649ZM125.232 5.66V10.772H133.476V15.524H125.232V21.068H134.556V26H119.076V0.727999H134.556V5.66H125.232ZM151.44 26L146.184 16.46H144.708V26H138.552V0.727999H148.884C150.876 0.727999 152.568 1.076 153.96 1.772C155.376 2.468 156.432 3.428 157.128 4.652C157.824 5.852 158.172 7.196 158.172 8.684C158.172 10.364 157.692 11.864 156.732 13.184C155.796 14.504 154.404 15.44 152.556 15.992L158.388 26H151.44ZM144.708 12.104H148.524C149.652 12.104 150.492 11.828 151.044 11.276C151.62 10.724 151.908 9.944 151.908 8.936C151.908 7.976 151.62 7.22 151.044 6.668C150.492 6.116 149.652 5.84 148.524 5.84H144.708V12.104ZM160.993 13.328C160.993 10.832 161.533 8.612 162.613 6.668C163.693 4.7 165.193 3.176 167.113 2.096C169.057 0.991999 171.253 0.439999 173.701 0.439999C176.701 0.439999 179.269 1.232 181.405 2.816C183.541 4.4 184.969 6.56 185.689 9.296H178.921C178.417 8.24 177.697 7.436 176.761 6.884C175.849 6.332 174.805 6.056 173.629 6.056C171.733 6.056 170.197 6.716 169.021 8.036C167.845 9.356 167.257 11.12 167.257 13.328C167.257 15.536 167.845 17.3 169.021 18.62C170.197 19.94 171.733 20.6 173.629 20.6C174.805 20.6 175.849 20.324 176.761 19.772C177.697 19.22 178.417 18.416 178.921 17.36H185.689C184.969 20.096 183.541 22.256 181.405 23.84C179.269 25.4 176.701 26.18 173.701 26.18C171.253 26.18 169.057 25.64 167.113 24.56C165.193 23.456 163.693 21.932 162.613 19.988C161.533 18.044 160.993 15.824 160.993 13.328ZM211.347 0.727999V26H205.191V15.596H195.615V26H189.459V0.727999H195.615V10.628H205.191V0.727999H211.347ZM231.523 21.536H222.091L220.579 26H214.135L223.279 0.727999H230.407L239.551 26H233.035L231.523 21.536ZM229.939 16.784L226.807 7.532L223.711 16.784H229.939ZM264.942 26H258.786L248.49 10.412V26H242.334V0.727999H248.49L258.786 16.388V0.727999H264.942V26ZM287.584 0.727999V5.66H280.888V26H274.732V5.66H268.036V0.727999H287.584ZM299.817 26.252C297.969 26.252 296.313 25.952 294.849 25.352C293.385 24.752 292.209 23.864 291.321 22.688C290.457 21.512 290.001 20.096 289.953 18.44H296.505C296.601 19.376 296.925 20.096 297.477 20.6C298.029 21.08 298.749 21.32 299.637 21.32C300.549 21.32 301.269 21.116 301.797 20.708C302.325 20.276 302.589 19.688 302.589 18.944C302.589 18.32 302.373 17.804 301.941 17.396C301.533 16.988 301.017 16.652 300.393 16.388C299.793 16.124 298.929 15.824 297.801 15.488C296.169 14.984 294.837 14.48 293.805 13.976C292.773 13.472 291.885 12.728 291.141 11.744C290.397 10.76 290.025 9.476 290.025 7.892C290.025 5.54 290.877 3.704 292.581 2.384C294.285 1.04 296.505 0.368 299.241 0.368C302.025 0.368 304.269 1.04 305.973 2.384C307.677 3.704 308.589 5.552 308.709 7.928H302.049C302.001 7.112 301.701 6.476 301.149 6.02C300.597 5.54 299.889 5.3 299.025 5.3C298.281 5.3 297.681 5.504 297.225 5.912C296.769 6.296 296.541 6.86 296.541 7.604C296.541 8.42 296.925 9.056 297.693 9.512C298.461 9.968 299.661 10.46 301.293 10.988C302.925 11.54 304.245 12.068 305.253 12.572C306.285 13.076 307.173 13.808 307.917 14.768C308.661 15.728 309.033 16.964 309.033 18.476C309.033 19.916 308.661 21.224 307.917 22.4C307.197 23.576 306.141 24.512 304.749 25.208C303.357 25.904 301.713 26.252 299.817 26.252Z" fill="white"/>
</svg>
