<svg width="267" height="18" viewBox="0 0 267 18" fill="none" xmlns="http://www.w3.org/2000/svg">
<path d="M12.872 5.432C12.872 6.328 12.656 7.168 12.224 7.952C11.808 8.736 11.144 9.368 10.232 9.848C9.336 10.328 8.2 10.568 6.824 10.568H4.016V17H0.656V0.248H6.824C8.12 0.248 9.224 0.472 10.136 0.92C11.048 1.368 11.728 1.984 12.176 2.768C12.64 3.552 12.872 4.44 12.872 5.432ZM6.68 7.856C7.608 7.856 8.296 7.648 8.744 7.232C9.192 6.8 9.416 6.2 9.416 5.432C9.416 3.8 8.504 2.984 6.68 2.984H4.016V7.856H6.68ZM23.0336 17.168C21.4656 17.168 20.0256 16.8 18.7136 16.064C17.4016 15.328 16.3616 14.312 15.5936 13.016C14.8256 11.704 14.4416 10.224 14.4416 8.576C14.4416 6.944 14.8256 5.48 15.5936 4.184C16.3616 2.872 17.4016 1.848 18.7136 1.112C20.0256 0.375999 21.4656 0.0079999 23.0336 0.0079999C24.6176 0.0079999 26.0576 0.375999 27.3536 1.112C28.6656 1.848 29.6976 2.872 30.4496 4.184C31.2176 5.48 31.6016 6.944 31.6016 8.576C31.6016 10.224 31.2176 11.704 30.4496 13.016C29.6976 14.312 28.6656 15.328 27.3536 16.064C26.0416 16.8 24.6016 17.168 23.0336 17.168ZM23.0336 14.168C24.0416 14.168 24.9296 13.944 25.6976 13.496C26.4656 13.032 27.0656 12.376 27.4976 11.528C27.9296 10.68 28.1456 9.696 28.1456 8.576C28.1456 7.456 27.9296 6.48 27.4976 5.648C27.0656 4.8 26.4656 4.152 25.6976 3.704C24.9296 3.256 24.0416 3.032 23.0336 3.032C22.0256 3.032 21.1296 3.256 20.3456 3.704C19.5776 4.152 18.9776 4.8 18.5456 5.648C18.1136 6.48 17.8976 7.456 17.8976 8.576C17.8976 9.696 18.1136 10.68 18.5456 11.528C18.9776 12.376 19.5776 13.032 20.3456 13.496C21.1296 13.944 22.0256 14.168 23.0336 14.168ZM46.3173 5.432C46.3173 6.328 46.1013 7.168 45.6693 7.952C45.2533 8.736 44.5893 9.368 43.6773 9.848C42.7813 10.328 41.6453 10.568 40.2693 10.568H37.4613V17H34.1013V0.248H40.2693C41.5653 0.248 42.6693 0.472 43.5813 0.92C44.4933 1.368 45.1733 1.984 45.6213 2.768C46.0853 3.552 46.3173 4.44 46.3173 5.432ZM40.1253 7.856C41.0533 7.856 41.7413 7.648 42.1893 7.232C42.6373 6.8 42.8613 6.2 42.8613 5.432C42.8613 3.8 41.9493 2.984 40.1253 2.984H37.4613V7.856H40.1253ZM52.0149 0.248V10.616C52.0149 11.752 52.3109 12.624 52.9029 13.232C53.4949 13.824 54.3269 14.12 55.3989 14.12C56.4869 14.12 57.3269 13.824 57.9189 13.232C58.5109 12.624 58.8069 11.752 58.8069 10.616V0.248H62.1909V10.592C62.1909 12.016 61.8789 13.224 61.2549 14.216C60.6469 15.192 59.8229 15.928 58.7829 16.424C57.7589 16.92 56.6149 17.168 55.3509 17.168C54.1029 17.168 52.9669 16.92 51.9429 16.424C50.9349 15.928 50.1349 15.192 49.5429 14.216C48.9509 13.224 48.6549 12.016 48.6549 10.592V0.248H52.0149ZM68.7973 14.336H74.3173V17H65.4373V0.248H68.7973V14.336ZM86.7249 13.808H80.0529L78.9489 17H75.4209L81.4449 0.223999H85.3569L91.3809 17H87.8289L86.7249 13.808ZM85.8129 11.12L83.3889 4.112L80.9649 11.12H85.8129ZM102.273 17L98.5766 10.472H96.9926V17H93.6326V0.248H99.9206C101.217 0.248 102.321 0.48 103.233 0.943999C104.145 1.392 104.825 2.008 105.273 2.792C105.737 3.56 105.969 4.424 105.969 5.384C105.969 6.488 105.649 7.488 105.009 8.384C104.369 9.264 103.417 9.872 102.153 10.208L106.161 17H102.273ZM96.9926 7.952H99.8006C100.713 7.952 101.393 7.736 101.841 7.304C102.289 6.856 102.513 6.24 102.513 5.456C102.513 4.688 102.289 4.096 101.841 3.68C101.393 3.248 100.713 3.032 99.8006 3.032H96.9926V7.952ZM138.709 0.248V17H135.349V6.104L130.861 17H128.317L123.805 6.104V17H120.445V0.248H124.261L129.589 12.704L134.917 0.248H138.709ZM145.391 2.96V7.16H151.031V9.824H145.391V14.264H151.751V17H142.031V0.223999H151.751V2.96H145.391ZM163.444 17L159.748 10.472H158.164V17H154.804V0.248H161.092C162.388 0.248 163.492 0.48 164.404 0.943999C165.316 1.392 165.996 2.008 166.444 2.792C166.908 3.56 167.14 4.424 167.14 5.384C167.14 6.488 166.82 7.488 166.18 8.384C165.54 9.264 164.588 9.872 163.324 10.208L167.332 17H163.444ZM158.164 7.952H160.972C161.884 7.952 162.564 7.736 163.012 7.304C163.46 6.856 163.684 6.24 163.684 5.456C163.684 4.688 163.46 4.096 163.012 3.68C162.564 3.248 161.884 3.032 160.972 3.032H158.164V7.952ZM169.363 8.6C169.363 6.952 169.731 5.48 170.467 4.184C171.219 2.872 172.235 1.856 173.515 1.136C174.811 0.4 176.259 0.0319996 177.859 0.0319996C179.731 0.0319996 181.371 0.512 182.779 1.472C184.187 2.432 185.171 3.76 185.731 5.456H181.867C181.483 4.656 180.939 4.056 180.235 3.656C179.547 3.256 178.747 3.056 177.835 3.056C176.859 3.056 175.987 3.288 175.219 3.752C174.467 4.2 173.875 4.84 173.443 5.672C173.027 6.504 172.819 7.48 172.819 8.6C172.819 9.704 173.027 10.68 173.443 11.528C173.875 12.36 174.467 13.008 175.219 13.472C175.987 13.92 176.859 14.144 177.835 14.144C178.747 14.144 179.547 13.944 180.235 13.544C180.939 13.128 181.483 12.52 181.867 11.72H185.731C185.171 13.432 184.187 14.768 182.779 15.728C181.387 16.672 179.747 17.144 177.859 17.144C176.259 17.144 174.811 16.784 173.515 16.064C172.235 15.328 171.219 14.312 170.467 13.016C169.731 11.72 169.363 10.248 169.363 8.6ZM202.497 0.248V17H199.137V9.872H191.961V17H188.601V0.248H191.961V7.136H199.137V0.248H202.497ZM216.076 13.808H209.404L208.3 17H204.772L210.796 0.223999H214.708L220.732 17H217.18L216.076 13.808ZM215.164 11.12L212.74 4.112L210.316 11.12H215.164ZM237.312 17H233.952L226.344 5.504V17H222.984V0.223999H226.344L233.952 11.744V0.223999H237.312V17ZM252.033 0.248V2.96H247.569V17H244.209V2.96H239.745V0.248H252.033ZM260.268 17.168C259.1 17.168 258.044 16.968 257.1 16.568C256.172 16.168 255.436 15.592 254.892 14.84C254.348 14.088 254.068 13.2 254.052 12.176H257.652C257.7 12.864 257.94 13.408 258.372 13.808C258.82 14.208 259.428 14.408 260.196 14.408C260.98 14.408 261.596 14.224 262.044 13.856C262.492 13.472 262.716 12.976 262.716 12.368C262.716 11.872 262.564 11.464 262.26 11.144C261.956 10.824 261.572 10.576 261.108 10.4C260.66 10.208 260.036 10 259.236 9.776C258.148 9.456 257.26 9.144 256.572 8.84C255.9 8.52 255.316 8.048 254.82 7.424C254.34 6.784 254.1 5.936 254.1 4.88C254.1 3.888 254.348 3.024 254.844 2.288C255.34 1.552 256.036 0.991999 256.932 0.607999C257.828 0.208 258.852 0.0079999 260.004 0.0079999C261.732 0.0079999 263.132 0.432 264.204 1.28C265.292 2.112 265.892 3.28 266.004 4.784H262.308C262.276 4.208 262.028 3.736 261.564 3.368C261.116 2.984 260.516 2.792 259.764 2.792C259.108 2.792 258.58 2.96 258.18 3.296C257.796 3.632 257.604 4.12 257.604 4.76C257.604 5.208 257.748 5.584 258.036 5.888C258.34 6.176 258.708 6.416 259.14 6.608C259.588 6.784 260.212 6.992 261.012 7.232C262.1 7.552 262.988 7.872 263.676 8.192C264.364 8.512 264.956 8.992 265.452 9.632C265.948 10.272 266.196 11.112 266.196 12.152C266.196 13.048 265.964 13.88 265.5 14.648C265.036 15.416 264.356 16.032 263.46 16.496C262.564 16.944 261.5 17.168 260.268 17.168Z" fill="#140D4F"/>
</svg>
