<svg width="208" height="19" viewBox="0 0 208 19" fill="none" xmlns="http://www.w3.org/2000/svg">
<path d="M9.432 1.49V3.164H6.102V14H4.05V3.164H0.702V1.49H9.432ZM15.8122 14.162C14.8762 14.162 14.0302 13.952 13.2742 13.532C12.5182 13.1 11.9242 12.5 11.4922 11.732C11.0602 10.952 10.8442 10.052 10.8442 9.032C10.8442 8.024 11.0662 7.13 11.5102 6.35C11.9542 5.57 12.5602 4.97 13.3282 4.55C14.0962 4.13 14.9542 3.92 15.9022 3.92C16.8502 3.92 17.7082 4.13 18.4762 4.55C19.2442 4.97 19.8502 5.57 20.2942 6.35C20.7382 7.13 20.9602 8.024 20.9602 9.032C20.9602 10.04 20.7322 10.934 20.2762 11.714C19.8202 12.494 19.1962 13.1 18.4042 13.532C17.6242 13.952 16.7602 14.162 15.8122 14.162ZM15.8122 12.38C16.3402 12.38 16.8322 12.254 17.2882 12.002C17.7562 11.75 18.1342 11.372 18.4222 10.868C18.7102 10.364 18.8542 9.752 18.8542 9.032C18.8542 8.312 18.7162 7.706 18.4402 7.214C18.1642 6.71 17.7982 6.332 17.3422 6.08C16.8862 5.828 16.3942 5.702 15.8662 5.702C15.3382 5.702 14.8462 5.828 14.3902 6.08C13.9462 6.332 13.5922 6.71 13.3282 7.214C13.0642 7.706 12.9322 8.312 12.9322 9.032C12.9322 10.1 13.2022 10.928 13.7422 11.516C14.2942 12.092 14.9842 12.38 15.8122 12.38ZM25.3827 5.756V11.246C25.3827 11.618 25.4667 11.888 25.6347 12.056C25.8147 12.212 26.1147 12.29 26.5347 12.29H27.7947V14H26.1747C25.2507 14 24.5427 13.784 24.0507 13.352C23.5587 12.92 23.3127 12.218 23.3127 11.246V5.756H22.1427V4.082H23.3127V1.616H25.3827V4.082H27.7947V5.756H25.3827ZM29.0019 8.996C29.0019 8 29.2059 7.118 29.6139 6.35C30.0339 5.582 30.5979 4.988 31.3059 4.568C32.0259 4.136 32.8179 3.92 33.6819 3.92C34.4619 3.92 35.1399 4.076 35.7159 4.388C36.3039 4.688 36.7719 5.066 37.1199 5.522V4.082H39.1899V14H37.1199V12.524C36.7719 12.992 36.2979 13.382 35.6979 13.694C35.0979 14.006 34.4139 14.162 33.6459 14.162C32.7939 14.162 32.0139 13.946 31.3059 13.514C30.5979 13.07 30.0339 12.458 29.6139 11.678C29.2059 10.886 29.0019 9.992 29.0019 8.996ZM37.1199 9.032C37.1199 8.348 36.9759 7.754 36.6879 7.25C36.4119 6.746 36.0459 6.362 35.5899 6.098C35.1339 5.834 34.6419 5.702 34.1139 5.702C33.5859 5.702 33.0939 5.834 32.6379 6.098C32.1819 6.35 31.8099 6.728 31.5219 7.232C31.2459 7.724 31.1079 8.312 31.1079 8.996C31.1079 9.68 31.2459 10.28 31.5219 10.796C31.8099 11.312 32.1819 11.708 32.6379 11.984C33.1059 12.248 33.5979 12.38 34.1139 12.38C34.6419 12.38 35.1339 12.248 35.5899 11.984C36.0459 11.72 36.4119 11.336 36.6879 10.832C36.9759 10.316 37.1199 9.716 37.1199 9.032ZM43.9372 0.68V14H41.8852V0.68H43.9372ZM50.623 7.718C50.623 6.494 50.905 5.396 51.469 4.424C52.045 3.452 52.819 2.696 53.791 2.156C54.775 1.604 55.849 1.328 57.013 1.328C58.345 1.328 59.527 1.658 60.559 2.318C61.603 2.966 62.359 3.89 62.827 5.09H60.361C60.037 4.43 59.587 3.938 59.011 3.614C58.435 3.29 57.769 3.128 57.013 3.128C56.185 3.128 55.447 3.314 54.799 3.686C54.151 4.058 53.641 4.592 53.269 5.288C52.909 5.984 52.729 6.794 52.729 7.718C52.729 8.642 52.909 9.452 53.269 10.148C53.641 10.844 54.151 11.384 54.799 11.768C55.447 12.14 56.185 12.326 57.013 12.326C57.769 12.326 58.435 12.164 59.011 11.84C59.587 11.516 60.037 11.024 60.361 10.364H62.827C62.359 11.564 61.603 12.488 60.559 13.136C59.527 13.784 58.345 14.108 57.013 14.108C55.837 14.108 54.763 13.838 53.791 13.298C52.819 12.746 52.045 11.984 51.469 11.012C50.905 10.04 50.623 8.942 50.623 7.718ZM69.5309 14.162C68.5949 14.162 67.7489 13.952 66.9929 13.532C66.2369 13.1 65.6429 12.5 65.2109 11.732C64.7789 10.952 64.5629 10.052 64.5629 9.032C64.5629 8.024 64.7849 7.13 65.2289 6.35C65.6729 5.57 66.2789 4.97 67.0469 4.55C67.8149 4.13 68.6729 3.92 69.6209 3.92C70.5689 3.92 71.4269 4.13 72.1949 4.55C72.9629 4.97 73.5689 5.57 74.0129 6.35C74.4569 7.13 74.6789 8.024 74.6789 9.032C74.6789 10.04 74.4509 10.934 73.9949 11.714C73.5389 12.494 72.9149 13.1 72.1229 13.532C71.3429 13.952 70.4789 14.162 69.5309 14.162ZM69.5309 12.38C70.0589 12.38 70.5509 12.254 71.0069 12.002C71.4749 11.75 71.8529 11.372 72.1409 10.868C72.4289 10.364 72.5729 9.752 72.5729 9.032C72.5729 8.312 72.4349 7.706 72.1589 7.214C71.8829 6.71 71.5169 6.332 71.0609 6.08C70.6049 5.828 70.1129 5.702 69.5849 5.702C69.0569 5.702 68.5649 5.828 68.1089 6.08C67.6649 6.332 67.3109 6.71 67.0469 7.214C66.7829 7.706 66.6509 8.312 66.6509 9.032C66.6509 10.1 66.9209 10.928 67.4609 11.516C68.0129 12.092 68.7029 12.38 69.5309 12.38ZM85.6894 4.082V14H83.6374V12.83C83.3134 13.238 82.8874 13.562 82.3594 13.802C81.8434 14.03 81.2914 14.144 80.7034 14.144C79.9234 14.144 79.2214 13.982 78.5974 13.658C77.9854 13.334 77.4994 12.854 77.1394 12.218C76.7914 11.582 76.6174 10.814 76.6174 9.914V4.082H78.6514V9.608C78.6514 10.496 78.8734 11.18 79.3174 11.66C79.7614 12.128 80.3674 12.362 81.1354 12.362C81.9034 12.362 82.5094 12.128 82.9534 11.66C83.4094 11.18 83.6374 10.496 83.6374 9.608V4.082H85.6894ZM90.4489 5.54C90.7969 5.084 91.2709 4.7 91.8709 4.388C92.4709 4.076 93.1489 3.92 93.9049 3.92C94.7689 3.92 95.5549 4.136 96.2629 4.568C96.9829 4.988 97.5469 5.582 97.9549 6.35C98.3629 7.118 98.5669 8 98.5669 8.996C98.5669 9.992 98.3629 10.886 97.9549 11.678C97.5469 12.458 96.9829 13.07 96.2629 13.514C95.5549 13.946 94.7689 14.162 93.9049 14.162C93.1489 14.162 92.4769 14.012 91.8889 13.712C91.3009 13.4 90.8209 13.016 90.4489 12.56V18.716H88.3969V4.082H90.4489V5.54ZM96.4789 8.996C96.4789 8.312 96.3349 7.724 96.0469 7.232C95.7709 6.728 95.3989 6.35 94.9309 6.098C94.4749 5.834 93.9829 5.702 93.4549 5.702C92.9389 5.702 92.4469 5.834 91.9789 6.098C91.5229 6.362 91.1509 6.746 90.8629 7.25C90.5869 7.754 90.4489 8.348 90.4489 9.032C90.4489 9.716 90.5869 10.316 90.8629 10.832C91.1509 11.336 91.5229 11.72 91.9789 11.984C92.4469 12.248 92.9389 12.38 93.4549 12.38C93.9829 12.38 94.4749 12.248 94.9309 11.984C95.3989 11.708 95.7709 11.312 96.0469 10.796C96.3349 10.28 96.4789 9.68 96.4789 8.996ZM104.898 14.162C103.962 14.162 103.116 13.952 102.36 13.532C101.604 13.1 101.01 12.5 100.578 11.732C100.146 10.952 99.9301 10.052 99.9301 9.032C99.9301 8.024 100.152 7.13 100.596 6.35C101.04 5.57 101.646 4.97 102.414 4.55C103.182 4.13 104.04 3.92 104.988 3.92C105.936 3.92 106.794 4.13 107.562 4.55C108.33 4.97 108.936 5.57 109.38 6.35C109.824 7.13 110.046 8.024 110.046 9.032C110.046 10.04 109.818 10.934 109.362 11.714C108.906 12.494 108.282 13.1 107.49 13.532C106.71 13.952 105.846 14.162 104.898 14.162ZM104.898 12.38C105.426 12.38 105.918 12.254 106.374 12.002C106.842 11.75 107.22 11.372 107.508 10.868C107.796 10.364 107.94 9.752 107.94 9.032C107.94 8.312 107.802 7.706 107.526 7.214C107.25 6.71 106.884 6.332 106.428 6.08C105.972 5.828 105.48 5.702 104.952 5.702C104.424 5.702 103.932 5.828 103.476 6.08C103.032 6.332 102.678 6.71 102.414 7.214C102.15 7.706 102.018 8.312 102.018 9.032C102.018 10.1 102.288 10.928 102.828 11.516C103.38 12.092 104.07 12.38 104.898 12.38ZM117.079 3.92C117.859 3.92 118.555 4.082 119.167 4.406C119.791 4.73 120.277 5.21 120.625 5.846C120.973 6.482 121.147 7.25 121.147 8.15V14H119.113V8.456C119.113 7.568 118.891 6.89 118.447 6.422C118.003 5.942 117.397 5.702 116.629 5.702C115.861 5.702 115.249 5.942 114.793 6.422C114.349 6.89 114.127 7.568 114.127 8.456V14H112.075V4.082H114.127V5.216C114.463 4.808 114.889 4.49 115.405 4.262C115.933 4.034 116.491 3.92 117.079 3.92ZM127.364 14.162C126.584 14.162 125.882 14.024 125.258 13.748C124.646 13.46 124.16 13.076 123.8 12.596C123.44 12.104 123.248 11.558 123.224 10.958H125.348C125.384 11.378 125.582 11.732 125.942 12.02C126.314 12.296 126.776 12.434 127.328 12.434C127.904 12.434 128.348 12.326 128.66 12.11C128.984 11.882 129.146 11.594 129.146 11.246C129.146 10.874 128.966 10.598 128.606 10.418C128.258 10.238 127.7 10.04 126.932 9.824C126.188 9.62 125.582 9.422 125.114 9.23C124.646 9.038 124.238 8.744 123.89 8.348C123.554 7.952 123.386 7.43 123.386 6.782C123.386 6.254 123.542 5.774 123.854 5.342C124.166 4.898 124.61 4.55 125.186 4.298C125.774 4.046 126.446 3.92 127.202 3.92C128.33 3.92 129.236 4.208 129.92 4.784C130.616 5.348 130.988 6.122 131.036 7.106H128.984C128.948 6.662 128.768 6.308 128.444 6.044C128.12 5.78 127.682 5.648 127.13 5.648C126.59 5.648 126.176 5.75 125.888 5.954C125.6 6.158 125.456 6.428 125.456 6.764C125.456 7.028 125.552 7.25 125.744 7.43C125.936 7.61 126.17 7.754 126.446 7.862C126.722 7.958 127.13 8.084 127.67 8.24C128.39 8.432 128.978 8.63 129.434 8.834C129.902 9.026 130.304 9.314 130.64 9.698C130.976 10.082 131.15 10.592 131.162 11.228C131.162 11.792 131.006 12.296 130.694 12.74C130.382 13.184 129.938 13.532 129.362 13.784C128.798 14.036 128.132 14.162 127.364 14.162ZM147.721 14L146.173 12.452C145.573 13.052 144.919 13.502 144.211 13.802C143.503 14.09 142.711 14.234 141.835 14.234C140.947 14.234 140.161 14.078 139.477 13.766C138.793 13.454 138.265 13.01 137.893 12.434C137.521 11.846 137.335 11.168 137.335 10.4C137.335 9.536 137.581 8.768 138.073 8.096C138.565 7.412 139.297 6.872 140.269 6.476C139.921 6.056 139.675 5.666 139.531 5.306C139.387 4.934 139.315 4.526 139.315 4.082C139.315 3.53 139.453 3.038 139.729 2.606C140.017 2.174 140.425 1.832 140.953 1.58C141.481 1.328 142.093 1.202 142.789 1.202C143.497 1.202 144.097 1.34 144.589 1.616C145.093 1.88 145.465 2.246 145.705 2.714C145.957 3.182 146.059 3.704 146.011 4.28H143.959C143.971 3.836 143.863 3.494 143.635 3.254C143.407 3.002 143.095 2.876 142.699 2.876C142.303 2.876 141.979 2.996 141.727 3.236C141.487 3.464 141.367 3.746 141.367 4.082C141.367 4.406 141.457 4.73 141.637 5.054C141.829 5.366 142.159 5.774 142.627 6.278L145.939 9.572L147.217 7.466H149.431L147.811 10.238L147.361 10.976L150.403 14H147.721ZM141.835 12.488C142.963 12.488 143.959 12.026 144.823 11.102L141.511 7.772C140.095 8.336 139.387 9.188 139.387 10.328C139.387 10.94 139.615 11.456 140.071 11.876C140.527 12.284 141.115 12.488 141.835 12.488ZM162.13 14.126C160.966 14.126 159.892 13.856 158.908 13.316C157.936 12.764 157.162 12.002 156.586 11.03C156.022 10.046 155.74 8.942 155.74 7.718C155.74 6.494 156.022 5.396 156.586 4.424C157.162 3.452 157.936 2.696 158.908 2.156C159.892 1.604 160.966 1.328 162.13 1.328C163.306 1.328 164.38 1.604 165.352 2.156C166.336 2.696 167.11 3.452 167.674 4.424C168.238 5.396 168.52 6.494 168.52 7.718C168.52 8.942 168.238 10.046 167.674 11.03C167.11 12.002 166.336 12.764 165.352 13.316C164.38 13.856 163.306 14.126 162.13 14.126ZM162.13 12.344C162.958 12.344 163.696 12.158 164.344 11.786C164.992 11.402 165.496 10.862 165.856 10.166C166.228 9.458 166.414 8.642 166.414 7.718C166.414 6.794 166.228 5.984 165.856 5.288C165.496 4.592 164.992 4.058 164.344 3.686C163.696 3.314 162.958 3.128 162.13 3.128C161.302 3.128 160.564 3.314 159.916 3.686C159.268 4.058 158.758 4.592 158.386 5.288C158.026 5.984 157.846 6.794 157.846 7.718C157.846 8.642 158.026 9.458 158.386 10.166C158.758 10.862 159.268 11.402 159.916 11.786C160.564 12.158 161.302 12.344 162.13 12.344ZM174.697 5.756H172.861V14H170.791V5.756H169.621V4.082H170.791V3.38C170.791 2.24 171.091 1.412 171.691 0.895999C172.303 0.368 173.257 0.104 174.553 0.104V1.814C173.929 1.814 173.491 1.934 173.239 2.174C172.987 2.402 172.861 2.804 172.861 3.38V4.082H174.697V5.756ZM180.674 5.756H178.838V14H176.768V5.756H175.598V4.082H176.768V3.38C176.768 2.24 177.068 1.412 177.668 0.895999C178.28 0.368 179.234 0.104 180.53 0.104V1.814C179.906 1.814 179.468 1.934 179.216 2.174C178.964 2.402 178.838 2.804 178.838 3.38V4.082H180.674V5.756ZM191.583 8.798C191.583 9.17 191.559 9.506 191.511 9.806H183.933C183.993 10.598 184.287 11.234 184.815 11.714C185.343 12.194 185.991 12.434 186.759 12.434C187.863 12.434 188.643 11.972 189.099 11.048H191.313C191.013 11.96 190.467 12.71 189.675 13.298C188.895 13.874 187.923 14.162 186.759 14.162C185.811 14.162 184.959 13.952 184.203 13.532C183.459 13.1 182.871 12.5 182.439 11.732C182.019 10.952 181.809 10.052 181.809 9.032C181.809 8.012 182.013 7.118 182.421 6.35C182.841 5.57 183.423 4.97 184.167 4.55C184.923 4.13 185.787 3.92 186.759 3.92C187.695 3.92 188.529 4.124 189.261 4.532C189.993 4.94 190.563 5.516 190.971 6.26C191.379 6.992 191.583 7.838 191.583 8.798ZM189.441 8.15C189.429 7.394 189.159 6.788 188.631 6.332C188.103 5.876 187.449 5.648 186.669 5.648C185.961 5.648 185.355 5.876 184.851 6.332C184.347 6.776 184.047 7.382 183.951 8.15H189.441ZM195.654 5.522C195.954 5.018 196.35 4.628 196.842 4.352C197.346 4.064 197.94 3.92 198.624 3.92V6.044H198.102C197.298 6.044 196.686 6.248 196.266 6.656C195.858 7.064 195.654 7.772 195.654 8.78V14H193.602V4.082H195.654V5.522ZM204.11 14.162C203.33 14.162 202.628 14.024 202.004 13.748C201.392 13.46 200.906 13.076 200.546 12.596C200.186 12.104 199.994 11.558 199.97 10.958H202.094C202.13 11.378 202.328 11.732 202.688 12.02C203.06 12.296 203.522 12.434 204.074 12.434C204.65 12.434 205.094 12.326 205.406 12.11C205.73 11.882 205.892 11.594 205.892 11.246C205.892 10.874 205.712 10.598 205.352 10.418C205.004 10.238 204.446 10.04 203.678 9.824C202.934 9.62 202.328 9.422 201.86 9.23C201.392 9.038 200.984 8.744 200.636 8.348C200.3 7.952 200.132 7.43 200.132 6.782C200.132 6.254 200.288 5.774 200.6 5.342C200.912 4.898 201.356 4.55 201.932 4.298C202.52 4.046 203.192 3.92 203.948 3.92C205.076 3.92 205.982 4.208 206.666 4.784C207.362 5.348 207.734 6.122 207.782 7.106H205.73C205.694 6.662 205.514 6.308 205.19 6.044C204.866 5.78 204.428 5.648 203.876 5.648C203.336 5.648 202.922 5.75 202.634 5.954C202.346 6.158 202.202 6.428 202.202 6.764C202.202 7.028 202.298 7.25 202.49 7.43C202.682 7.61 202.916 7.754 203.192 7.862C203.468 7.958 203.876 8.084 204.416 8.24C205.136 8.432 205.724 8.63 206.18 8.834C206.648 9.026 207.05 9.314 207.386 9.698C207.722 10.082 207.896 10.592 207.908 11.228C207.908 11.792 207.752 12.296 207.44 12.74C207.128 13.184 206.684 13.532 206.108 13.784C205.544 14.036 204.878 14.162 204.11 14.162Z" fill="white" fill-opacity="0.66"/>
</svg>
