<svg width="146" height="15" viewBox="0 0 146 15" fill="none" xmlns="http://www.w3.org/2000/svg">
<path d="M9.432 1.49V3.164H6.102V14H4.05V3.164H0.702V1.49H9.432ZM15.8122 14.162C14.8762 14.162 14.0302 13.952 13.2742 13.532C12.5182 13.1 11.9242 12.5 11.4922 11.732C11.0602 10.952 10.8442 10.052 10.8442 9.032C10.8442 8.024 11.0662 7.13 11.5102 6.35C11.9542 5.57 12.5602 4.97 13.3282 4.55C14.0962 4.13 14.9542 3.92 15.9022 3.92C16.8502 3.92 17.7082 4.13 18.4762 4.55C19.2442 4.97 19.8502 5.57 20.2942 6.35C20.7382 7.13 20.9602 8.024 20.9602 9.032C20.9602 10.04 20.7322 10.934 20.2762 11.714C19.8202 12.494 19.1962 13.1 18.4042 13.532C17.6242 13.952 16.7602 14.162 15.8122 14.162ZM15.8122 12.38C16.3402 12.38 16.8322 12.254 17.2882 12.002C17.7562 11.75 18.1342 11.372 18.4222 10.868C18.7102 10.364 18.8542 9.752 18.8542 9.032C18.8542 8.312 18.7162 7.706 18.4402 7.214C18.1642 6.71 17.7982 6.332 17.3422 6.08C16.8862 5.828 16.3942 5.702 15.8662 5.702C15.3382 5.702 14.8462 5.828 14.3902 6.08C13.9462 6.332 13.5922 6.71 13.3282 7.214C13.0642 7.706 12.9322 8.312 12.9322 9.032C12.9322 10.1 13.2022 10.928 13.7422 11.516C14.2942 12.092 14.9842 12.38 15.8122 12.38ZM25.3827 5.756V11.246C25.3827 11.618 25.4667 11.888 25.6347 12.056C25.8147 12.212 26.1147 12.29 26.5347 12.29H27.7947V14H26.1747C25.2507 14 24.5427 13.784 24.0507 13.352C23.5587 12.92 23.3127 12.218 23.3127 11.246V5.756H22.1427V4.082H23.3127V1.616H25.3827V4.082H27.7947V5.756H25.3827ZM29.0019 8.996C29.0019 8 29.2059 7.118 29.6139 6.35C30.0339 5.582 30.5979 4.988 31.3059 4.568C32.0259 4.136 32.8179 3.92 33.6819 3.92C34.4619 3.92 35.1399 4.076 35.7159 4.388C36.3039 4.688 36.7719 5.066 37.1199 5.522V4.082H39.1899V14H37.1199V12.524C36.7719 12.992 36.2979 13.382 35.6979 13.694C35.0979 14.006 34.4139 14.162 33.6459 14.162C32.7939 14.162 32.0139 13.946 31.3059 13.514C30.5979 13.07 30.0339 12.458 29.6139 11.678C29.2059 10.886 29.0019 9.992 29.0019 8.996ZM37.1199 9.032C37.1199 8.348 36.9759 7.754 36.6879 7.25C36.4119 6.746 36.0459 6.362 35.5899 6.098C35.1339 5.834 34.6419 5.702 34.1139 5.702C33.5859 5.702 33.0939 5.834 32.6379 6.098C32.1819 6.35 31.8099 6.728 31.5219 7.232C31.2459 7.724 31.1079 8.312 31.1079 8.996C31.1079 9.68 31.2459 10.28 31.5219 10.796C31.8099 11.312 32.1819 11.708 32.6379 11.984C33.1059 12.248 33.5979 12.38 34.1139 12.38C34.6419 12.38 35.1339 12.248 35.5899 11.984C36.0459 11.72 36.4119 11.336 36.6879 10.832C36.9759 10.316 37.1199 9.716 37.1199 9.032ZM43.9372 0.68V14H41.8852V0.68H43.9372ZM64.483 1.49V14H62.431V5.432L58.615 14H57.193L53.359 5.432V14H51.307V1.49H53.521L57.913 11.3L62.287 1.49H64.483ZM76.2701 8.798C76.2701 9.17 76.2461 9.506 76.1981 9.806H68.6201C68.6801 10.598 68.9741 11.234 69.5021 11.714C70.0301 12.194 70.6781 12.434 71.4461 12.434C72.5501 12.434 73.3301 11.972 73.7861 11.048H76.0001C75.7001 11.96 75.1541 12.71 74.3621 13.298C73.5821 13.874 72.6101 14.162 71.4461 14.162C70.4981 14.162 69.6461 13.952 68.8901 13.532C68.1461 13.1 67.5581 12.5 67.1261 11.732C66.7061 10.952 66.4961 10.052 66.4961 9.032C66.4961 8.012 66.7001 7.118 67.1081 6.35C67.5281 5.57 68.1101 4.97 68.8541 4.55C69.6101 4.13 70.4741 3.92 71.4461 3.92C72.3821 3.92 73.2161 4.124 73.9481 4.532C74.6801 4.94 75.2501 5.516 75.6581 6.26C76.0661 6.992 76.2701 7.838 76.2701 8.798ZM74.1281 8.15C74.1161 7.394 73.8461 6.788 73.3181 6.332C72.7901 5.876 72.1361 5.648 71.3561 5.648C70.6481 5.648 70.0421 5.876 69.5381 6.332C69.0341 6.776 68.7341 7.382 68.6381 8.15H74.1281ZM80.3415 5.522C80.6415 5.018 81.0375 4.628 81.5295 4.352C82.0335 4.064 82.6275 3.92 83.3115 3.92V6.044H82.7895C81.9855 6.044 81.3735 6.248 80.9535 6.656C80.5455 7.064 80.3415 7.772 80.3415 8.78V14H78.2895V4.082H80.3415V5.522ZM84.5137 9.032C84.5137 8.012 84.7177 7.118 85.1257 6.35C85.5457 5.57 86.1217 4.97 86.8537 4.55C87.5857 4.13 88.4257 3.92 89.3737 3.92C90.5737 3.92 91.5637 4.208 92.3437 4.784C93.1357 5.348 93.6697 6.158 93.9457 7.214H91.7317C91.5517 6.722 91.2637 6.338 90.8677 6.062C90.4717 5.786 89.9737 5.648 89.3737 5.648C88.5337 5.648 87.8617 5.948 87.3577 6.548C86.8657 7.136 86.6197 7.964 86.6197 9.032C86.6197 10.1 86.8657 10.934 87.3577 11.534C87.8617 12.134 88.5337 12.434 89.3737 12.434C90.5617 12.434 91.3477 11.912 91.7317 10.868H93.9457C93.6577 11.876 93.1177 12.68 92.3257 13.28C91.5337 13.868 90.5497 14.162 89.3737 14.162C88.4257 14.162 87.5857 13.952 86.8537 13.532C86.1217 13.1 85.5457 12.5 85.1257 11.732C84.7177 10.952 84.5137 10.052 84.5137 9.032ZM101.121 3.92C101.877 3.92 102.549 4.082 103.137 4.406C103.737 4.73 104.205 5.21 104.541 5.846C104.889 6.482 105.063 7.25 105.063 8.15V14H103.029V8.456C103.029 7.568 102.807 6.89 102.363 6.422C101.919 5.942 101.313 5.702 100.545 5.702C99.7766 5.702 99.1646 5.942 98.7086 6.422C98.2646 6.89 98.0426 7.568 98.0426 8.456V14H95.9906V0.68H98.0426V5.234C98.3906 4.814 98.8286 4.49 99.3566 4.262C99.8966 4.034 100.485 3.92 101.121 3.92ZM106.996 8.996C106.996 8 107.2 7.118 107.608 6.35C108.028 5.582 108.592 4.988 109.3 4.568C110.02 4.136 110.812 3.92 111.676 3.92C112.456 3.92 113.134 4.076 113.71 4.388C114.298 4.688 114.766 5.066 115.114 5.522V4.082H117.184V14H115.114V12.524C114.766 12.992 114.292 13.382 113.692 13.694C113.092 14.006 112.408 14.162 111.64 14.162C110.788 14.162 110.008 13.946 109.3 13.514C108.592 13.07 108.028 12.458 107.608 11.678C107.2 10.886 106.996 9.992 106.996 8.996ZM115.114 9.032C115.114 8.348 114.97 7.754 114.682 7.25C114.406 6.746 114.04 6.362 113.584 6.098C113.128 5.834 112.636 5.702 112.108 5.702C111.58 5.702 111.088 5.834 110.632 6.098C110.176 6.35 109.804 6.728 109.516 7.232C109.24 7.724 109.102 8.312 109.102 8.996C109.102 9.68 109.24 10.28 109.516 10.796C109.804 11.312 110.176 11.708 110.632 11.984C111.1 12.248 111.592 12.38 112.108 12.38C112.636 12.38 113.128 12.248 113.584 11.984C114.04 11.72 114.406 11.336 114.682 10.832C114.97 10.316 115.114 9.716 115.114 9.032ZM124.883 3.92C125.663 3.92 126.359 4.082 126.971 4.406C127.595 4.73 128.081 5.21 128.429 5.846C128.777 6.482 128.951 7.25 128.951 8.15V14H126.917V8.456C126.917 7.568 126.695 6.89 126.251 6.422C125.807 5.942 125.201 5.702 124.433 5.702C123.665 5.702 123.053 5.942 122.597 6.422C122.153 6.89 121.931 7.568 121.931 8.456V14H119.879V4.082H121.931V5.216C122.267 4.808 122.693 4.49 123.209 4.262C123.737 4.034 124.295 3.92 124.883 3.92ZM133.963 5.756V11.246C133.963 11.618 134.047 11.888 134.215 12.056C134.395 12.212 134.695 12.29 135.115 12.29H136.375V14H134.755C133.831 14 133.123 13.784 132.631 13.352C132.139 12.92 131.893 12.218 131.893 11.246V5.756H130.723V4.082H131.893V1.616H133.963V4.082H136.375V5.756H133.963ZM141.866 14.162C141.086 14.162 140.384 14.024 139.76 13.748C139.148 13.46 138.662 13.076 138.302 12.596C137.942 12.104 137.75 11.558 137.726 10.958H139.85C139.886 11.378 140.084 11.732 140.444 12.02C140.816 12.296 141.278 12.434 141.83 12.434C142.406 12.434 142.85 12.326 143.162 12.11C143.486 11.882 143.648 11.594 143.648 11.246C143.648 10.874 143.468 10.598 143.108 10.418C142.76 10.238 142.202 10.04 141.434 9.824C140.69 9.62 140.084 9.422 139.616 9.23C139.148 9.038 138.74 8.744 138.392 8.348C138.056 7.952 137.888 7.43 137.888 6.782C137.888 6.254 138.044 5.774 138.356 5.342C138.668 4.898 139.112 4.55 139.688 4.298C140.276 4.046 140.948 3.92 141.704 3.92C142.832 3.92 143.738 4.208 144.422 4.784C145.118 5.348 145.49 6.122 145.538 7.106H143.486C143.45 6.662 143.27 6.308 142.946 6.044C142.622 5.78 142.184 5.648 141.632 5.648C141.092 5.648 140.678 5.75 140.39 5.954C140.102 6.158 139.958 6.428 139.958 6.764C139.958 7.028 140.054 7.25 140.246 7.43C140.438 7.61 140.672 7.754 140.948 7.862C141.224 7.958 141.632 8.084 142.172 8.24C142.892 8.432 143.48 8.63 143.936 8.834C144.404 9.026 144.806 9.314 145.142 9.698C145.478 10.082 145.652 10.592 145.664 11.228C145.664 11.792 145.508 12.296 145.196 12.74C144.884 13.184 144.44 13.532 143.864 13.784C143.3 14.036 142.634 14.162 141.866 14.162Z" fill="white" fill-opacity="0.66"/>
</svg>
