<svg width="11" height="11" viewBox="0 0 11 11" fill="none" xmlns="http://www.w3.org/2000/svg">
<path d="M3.25 5.5L5.17857 7.10714L7.75 3.89286M5.5 10C4.90905 10 4.32389 9.8836 3.77792 9.65746C3.23196 9.43131 2.73588 9.09984 2.31802 8.68198C1.90016 8.26412 1.56869 7.76804 1.34254 7.22208C1.1164 6.67611 1 6.09095 1 5.5C1 4.90905 1.1164 4.32389 1.34254 3.77792C1.56869 3.23196 1.90016 2.73588 2.31802 2.31802C2.73588 1.90016 3.23196 1.56869 3.77792 1.34254C4.32389 1.1164 4.90905 1 5.5 1C6.69347 1 7.83807 1.47411 8.68198 2.31802C9.52589 3.16193 10 4.30653 10 5.5C10 6.69347 9.52589 7.83807 8.68198 8.68198C7.83807 9.52589 6.69347 10 5.5 10Z" stroke="white" stroke-opacity="0.5"/>
</svg>
